<svg xmlns="http://www.w3.org/2000/svg" viewBox="0 0 400 400">
  <defs>
    <radialGradient id="aurora" cx="50%" cy="50%" r="70%">
      <stop offset="0%" stop-color="#87fff7" stop-opacity="0.95" />
      <stop offset="35%" stop-color="#4fa6ff" stop-opacity="0.8" />
      <stop offset="100%" stop-color="#0b1a3f" stop-opacity="1" />
    </radialGradient>
    <linearGradient id="halo" x1="0%" y1="0%" x2="100%" y2="100%">
      <stop offset="0%" stop-color="#a0f3ff" stop-opacity="0.4" />
      <stop offset="100%" stop-color="#ff8ef2" stop-opacity="0.2" />
    </linearGradient>
    <linearGradient id="beam" x1="0%" y1="0%" x2="100%" y2="0%">
      <stop offset="0%" stop-color="#41f0ff" stop-opacity="0" />
      <stop offset="50%" stop-color="#41f0ff" stop-opacity="0.9" />
      <stop offset="100%" stop-color="#41f0ff" stop-opacity="0" />
    </linearGradient>
    <filter id="soft" x="-40%" y="-40%" width="180%" height="180%">
      <feGaussianBlur in="SourceGraphic" stdDeviation="16" result="blur" />
      <feMerge>
        <feMergeNode in="blur" />
        <feMergeNode in="SourceGraphic" />
      </feMerge>
    </filter>
  </defs>
  <rect width="400" height="400" rx="36" fill="#050b1a" />
  <circle cx="200" cy="200" r="132" fill="url(#aurora)" filter="url(#soft)" />
  <g stroke="url(#halo)" stroke-width="10" stroke-linecap="round" fill="none">
    <ellipse cx="200" cy="200" rx="130" ry="84" transform="rotate(-22 200 200)" opacity="0.45">
      <animateTransform attributeName="transform" type="rotate" from="-22 200 200" to="338 200 200" dur="24s" repeatCount="indefinite" />
    </ellipse>
    <ellipse cx="200" cy="200" rx="110" ry="70" transform="rotate(18 200 200)" opacity="0.35">
      <animateTransform attributeName="transform" type="rotate" from="18 200 200" to="378 200 200" dur="18s" repeatCount="indefinite" />
    </ellipse>
  </g>
  <g stroke="rgba(164,236,255,0.45)" stroke-width="1.5">
    <path d="M120 220 Q200 160 280 220" fill="none" opacity="0.5" />
    <path d="M140 250 Q200 190 260 250" fill="none" opacity="0.35" />
  </g>
  <g fill="#d7f9ff">
    <circle cx="140" cy="220" r="6">
      <animate attributeName="opacity" values="0.2;1;0.2" dur="4s" repeatCount="indefinite" />
    </circle>
    <circle cx="200" cy="180" r="8">
      <animate attributeName="r" values="6;9;6" dur="5s" repeatCount="indefinite" />
    </circle>
    <circle cx="260" cy="220" r="6">
      <animate attributeName="opacity" values="0.3;1;0.3" dur="3.6s" repeatCount="indefinite" />
    </circle>
    <circle cx="170" cy="260" r="5">
      <animate attributeName="r" values="4;7;4" dur="4.8s" repeatCount="indefinite" />
    </circle>
    <circle cx="230" cy="260" r="5">
      <animate attributeName="opacity" values="0.4;0.9;0.4" dur="4.2s" repeatCount="indefinite" />
    </circle>
  </g>
  <g stroke="rgba(90,208,255,0.55)" stroke-width="2" stroke-linecap="round">
    <line x1="140" y1="220" x2="200" y2="180" />
    <line x1="200" y1="180" x2="260" y2="220" />
    <line x1="170" y1="260" x2="200" y2="180" stroke-dasharray="6 6" />
    <line x1="230" y1="260" x2="200" y2="180" stroke-dasharray="6 6" />
  </g>
  <rect x="120" y="310" width="160" height="4" rx="2" fill="url(#beam)">
    <animate attributeName="x" values="120;240;120" dur="6s" repeatCount="indefinite" />
  </rect>
</svg>
